<?xml version="1.0" standalone="no"?>
<!DOCTYPE svg PUBLIC "-//W3C//DTD SVG 20010904//EN"
 "http://www.w3.org/TR/2001/REC-SVG-20010904/DTD/svg10.dtd">
<svg version="1.0" xmlns="http://www.w3.org/2000/svg"
 width="155.000000pt" height="91.000000pt" viewBox="0 0 155.000000 91.000000"
 preserveAspectRatio="xMidYMid meet">

<g transform="translate(0.000000,91.000000) scale(0.100000,-0.100000)"
fill="#000000" stroke="none">
<path d="M438 712 c-181 -59 -328 -109 -328 -112 0 -4 150 -55 333 -114 l334
-109 144 48 c79 26 149 50 154 54 6 3 -62 28 -149 56 -88 28 -161 56 -164 63
-6 20 16 15 198 -46 l175 -59 152 51 c84 28 153 53 153 56 0 4 -633 212 -663
217 -7 1 -159 -46 -339 -105z"/>
<path d="M1106 468 c-3 -13 -6 -37 -6 -54 0 -16 -6 -36 -12 -42 -10 -10 -10
-17 1 -34 9 -14 12 -54 11 -132 -3 -141 -3 -138 18 -134 15 3 17 18 18 133 0
72 1 137 2 145 3 30 -10 125 -18 133 -4 5 -10 -2 -14 -15z"/>
<path d="M490 324 l0 -99 39 -27 c74 -53 137 -72 241 -72 106 0 174 20 249 74
l41 30 0 96 c0 73 -3 95 -12 91 -7 -2 -72 -24 -143 -47 l-131 -43 -129 43
c-72 24 -136 45 -142 48 -10 3 -13 -20 -13 -94z"/>
</g>
</svg>
