<?xml version="1.0" standalone="no"?>
<!DOCTYPE svg PUBLIC "-//W3C//DTD SVG 20010904//EN"
 "http://www.w3.org/TR/2001/REC-SVG-20010904/DTD/svg10.dtd">
<svg version="1.0" xmlns="http://www.w3.org/2000/svg"
 width="511.000000pt" height="108.000000pt" viewBox="0 0 511.000000 108.000000"
 preserveAspectRatio="xMidYMid meet">

<g transform="translate(0.000000,108.000000) scale(0.100000,-0.100000)"
fill="#000000" stroke="none">
<path d="M1512 633 l3 -368 75 0 75 0 5 174 5 175 30 12 c19 7 38 8 53 3 21
-8 22 -13 22 -131 1 -202 15 -238 91 -238 57 0 92 19 83 44 -4 12 -10 100 -13
196 -7 193 -17 227 -71 255 -40 21 -108 19 -155 -5 -22 -11 -40 -20 -41 -20
-1 0 -3 51 -5 114 -5 143 -13 156 -101 156 l-58 0 2 -367z"/>
<path d="M2970 880 c0 -66 -3 -120 -7 -120 -5 0 -26 5 -48 10 -53 13 -131 -10
-167 -47 -50 -52 -71 -118 -71 -218 0 -104 25 -178 75 -220 54 -45 136 -45
203 1 l38 25 22 -21 c12 -11 38 -23 58 -27 33 -5 37 -3 55 34 18 34 18 41 6
58 -11 15 -14 75 -14 303 0 343 0 342 -97 342 l-53 0 0 -120z m-25 -232 c25
-11 25 -13 25 -124 0 -105 -1 -114 -22 -128 -12 -9 -35 -16 -50 -16 -43 0 -63
40 -63 125 0 135 33 178 110 143z"/>
<path d="M2263 953 l-32 -4 -111 -335 c-62 -184 -109 -338 -105 -342 4 -4 37
-7 73 -7 l67 0 23 73 24 72 112 0 112 0 14 -52 c19 -74 46 -98 112 -98 29 0
59 4 66 9 10 6 -11 83 -94 342 -59 184 -108 335 -108 336 -3 5 -126 10 -153 6z
m91 -286 c19 -69 31 -128 28 -131 -7 -8 -142 -8 -142 0 0 3 11 44 24 92 14 48
30 107 36 131 6 23 13 41 16 38 3 -2 20 -61 38 -130z"/>
<path d="M60 885 l0 -65 85 0 85 0 0 -280 0 -281 77 3 78 3 3 278 2 277 63 0
c86 0 107 16 107 81 l0 49 -250 0 -250 0 0 -65z"/>
<path d="M628 755 c-86 -46 -124 -136 -116 -273 12 -196 147 -276 350 -207 65
23 70 32 48 82 l-18 41 -53 -14 c-79 -21 -116 -18 -144 11 -14 13 -25 36 -25
50 l0 25 129 0 c125 0 129 1 135 23 24 90 -14 207 -83 253 -61 40 -158 44
-223 9z m145 -103 c9 -10 20 -33 23 -50 l7 -32 -67 0 c-66 0 -66 0 -66 28 0
62 65 96 103 54z"/>
<path d="M1135 756 c-27 -13 -60 -37 -72 -53 -74 -102 -70 -299 8 -388 40 -45
119 -70 193 -61 54 7 156 58 156 78 0 6 -10 26 -21 45 -23 37 -21 37 -100 7
-39 -15 -51 -16 -76 -5 -42 17 -53 48 -53 152 0 82 2 92 24 114 24 24 44 25
73 3 6 -5 14 -31 18 -59 l7 -49 42 0 c73 0 105 43 85 115 -30 109 -166 157
-284 101z"/>
<path d="M3350 764 c-92 -40 -133 -117 -134 -249 0 -97 21 -164 67 -213 52
-55 196 -65 300 -20 44 19 48 23 42 47 -3 14 -13 36 -20 48 -14 20 -16 21 -61
7 -87 -26 -136 -18 -159 27 -30 57 -27 58 118 61 l132 3 3 77 c3 84 -13 132
-60 175 -54 51 -157 68 -228 37z m130 -114 c11 -11 20 -33 20 -50 l0 -30 -65
0 c-62 0 -65 1 -65 24 0 33 37 76 66 76 13 0 33 -9 44 -20z"/>
<path d="M3742 518 l3 -253 75 0 75 0 5 174 5 175 31 12 c26 11 35 11 50 -1
17 -12 20 -32 24 -187 l5 -173 75 0 75 0 5 174 5 175 32 13 c30 12 35 11 53
-7 18 -18 20 -33 20 -161 0 -135 7 -173 34 -191 20 -14 101 -8 124 8 19 13 20
18 10 37 -7 13 -14 93 -17 202 -7 198 -14 221 -72 245 -45 19 -122 8 -171 -25
-41 -27 -42 -27 -58 -8 -24 30 -54 43 -100 43 -40 0 -112 -29 -125 -50 -4 -6
-18 2 -35 20 -24 26 -35 30 -79 30 l-51 0 2 -252z"/>
<path d="M4508 763 c-10 -2 -18 -7 -18 -10 0 -13 102 -391 116 -429 15 -41 45
-64 84 -64 17 0 18 -4 9 -29 -18 -53 -43 -66 -123 -66 l-71 0 -14 -43 c-10
-31 -10 -47 -3 -54 6 -6 48 -13 92 -16 133 -8 191 27 243 144 15 35 62 203
128 462 28 110 26 114 -66 110 l-59 -3 -41 -180 c-49 -213 -51 -219 -58 -185
-3 14 -17 79 -31 145 -47 220 -51 226 -124 224 -26 -1 -55 -3 -64 -6z"/>
</g>
</svg>
